<svg width="1200" height="146" viewBox="0 0 1200 146" fill="none" xmlns="http://www.w3.org/2000/svg">
<rect x="0.5" y="0.5" width="1199" height="145" fill="url(#paint0_linear_3117_60436)" stroke="url(#paint1_linear_3117_60436)"/>
<path d="M242.463 94V92.2955C242.463 91.8314 242.557 91.3651 242.747 90.8963C242.936 90.4276 243.175 89.9943 243.464 89.5966C243.753 89.1989 244.044 88.8769 244.338 88.6307L245.957 89.4545C245.711 89.8665 245.519 90.2973 245.382 90.7472C245.249 91.197 245.185 91.7131 245.19 92.2955V94H242.463ZM246.014 94V92.2955C246.014 91.8314 246.109 91.3651 246.298 90.8963C246.487 90.4276 246.726 89.9943 247.015 89.5966C247.304 89.1989 247.595 88.8769 247.889 88.6307L249.508 89.4545C249.262 89.8665 249.07 90.2973 248.933 90.7472C248.8 91.197 248.736 91.7131 248.741 92.2955V94H246.014ZM250.794 92.6364V89.4545H263.436V92.6364H259.061V104H255.169V92.6364H250.794ZM264.922 104V89.4545H268.871V95.1364H274.098V89.4545H278.047V104H274.098V98.3182H268.871V104H264.922ZM279.922 104V89.4545H290.405V92.6364H283.871V95.1364H289.865V98.3182H283.871V100.818H290.376V104H279.922ZM296.348 104V89.4545H306.575V92.6364H300.297V95.1364H305.95V98.3182H300.297V104H296.348ZM311.976 89.4545V104H308.027V89.4545H311.976ZM313.848 104V89.4545H320.126C321.206 89.4545 322.15 89.651 322.96 90.044C323.77 90.437 324.399 91.0028 324.849 91.7415C325.299 92.4801 325.524 93.3655 325.524 94.3977C325.524 95.4394 325.292 96.3177 324.828 97.0327C324.368 97.7476 323.722 98.2874 322.889 98.652C322.06 99.0166 321.092 99.1989 319.984 99.1989H316.234V96.1307H319.189C319.653 96.1307 320.048 96.0739 320.375 95.9602C320.706 95.8419 320.959 95.6548 321.135 95.3991C321.315 95.1435 321.404 94.8097 321.404 94.3977C321.404 93.9811 321.315 93.6425 321.135 93.3821C320.959 93.117 320.706 92.9228 320.375 92.7997C320.048 92.6719 319.653 92.608 319.189 92.608H317.797V104H313.848ZM322.37 97.3239L326.007 104H321.717L318.166 97.3239H322.37ZM335.048 94C335.01 93.5265 334.833 93.1572 334.515 92.892C334.203 92.6269 333.727 92.4943 333.088 92.4943C332.681 92.4943 332.347 92.544 332.086 92.6435C331.831 92.7382 331.641 92.8684 331.518 93.0341C331.395 93.1998 331.331 93.3892 331.326 93.6023C331.317 93.7775 331.348 93.9361 331.419 94.0781C331.494 94.2154 331.613 94.3409 331.774 94.4545C331.935 94.5634 332.141 94.6629 332.392 94.7528C332.643 94.8428 332.941 94.9233 333.287 94.9943L334.48 95.25C335.285 95.4205 335.974 95.6454 336.547 95.9247C337.119 96.2041 337.588 96.5331 337.953 96.9119C338.317 97.286 338.585 97.7074 338.755 98.1761C338.931 98.6449 339.02 99.1562 339.025 99.7102C339.02 100.667 338.781 101.476 338.308 102.139C337.834 102.802 337.157 103.306 336.277 103.652C335.401 103.998 334.347 104.17 333.116 104.17C331.852 104.17 330.749 103.983 329.806 103.609C328.869 103.235 328.14 102.66 327.619 101.884C327.103 101.102 326.842 100.103 326.838 98.8864H330.588C330.611 99.3314 330.723 99.7055 330.922 100.009C331.12 100.312 331.4 100.541 331.76 100.697C332.124 100.854 332.557 100.932 333.059 100.932C333.481 100.932 333.833 100.88 334.118 100.776C334.402 100.671 334.617 100.527 334.764 100.342C334.911 100.158 334.986 99.947 334.991 99.7102C334.986 99.4877 334.913 99.2936 334.771 99.1278C334.634 98.9574 334.406 98.8059 334.089 98.6733C333.772 98.536 333.343 98.4081 332.804 98.2898L331.355 97.9773C330.067 97.6979 329.051 97.2315 328.308 96.5781C327.569 95.92 327.202 95.0227 327.207 93.8864C327.202 92.9631 327.449 92.1558 327.946 91.4645C328.448 90.7685 329.141 90.2263 330.027 89.8381C330.917 89.4498 331.937 89.2557 333.088 89.2557C334.262 89.2557 335.278 89.4522 336.135 89.8452C336.992 90.2382 337.652 90.7921 338.116 91.5071C338.585 92.2173 338.822 93.0483 338.826 94H335.048ZM340.13 92.6364V89.4545H352.772V92.6364H348.397V104H344.505V92.6364H340.13ZM358.242 104V89.4545H368.725V92.6364H362.191V95.1364H368.185V98.3182H362.191V100.818H368.697V104H358.242ZM374.462 104H370.201L375.002 89.4545H380.4L385.201 104H380.939L377.757 93.4602H377.644L374.462 104ZM373.667 98.2614H381.678V101.216H373.667V98.2614ZM393.876 94C393.838 93.5265 393.661 93.1572 393.343 92.892C393.031 92.6269 392.555 92.4943 391.916 92.4943C391.509 92.4943 391.175 92.544 390.914 92.6435C390.659 92.7382 390.469 92.8684 390.346 93.0341C390.223 93.1998 390.159 93.3892 390.154 93.6023C390.145 93.7775 390.176 93.9361 390.247 94.0781C390.323 94.2154 390.441 94.3409 390.602 94.4545C390.763 94.5634 390.969 94.6629 391.22 94.7528C391.471 94.8428 391.769 94.9233 392.115 94.9943L393.308 95.25C394.113 95.4205 394.802 95.6454 395.375 95.9247C395.948 96.2041 396.416 96.5331 396.781 96.9119C397.145 97.286 397.413 97.7074 397.583 98.1761C397.759 98.6449 397.849 99.1562 397.853 99.7102C397.849 100.667 397.609 101.476 397.136 102.139C396.663 102.802 395.985 103.306 395.105 103.652C394.229 103.998 393.175 104.17 391.944 104.17C390.68 104.17 389.577 103.983 388.635 103.609C387.697 103.235 386.968 102.66 386.447 101.884C385.931 101.102 385.671 100.103 385.666 98.8864H389.416C389.44 99.3314 389.551 99.7055 389.75 100.009C389.949 100.312 390.228 100.541 390.588 100.697C390.952 100.854 391.386 100.932 391.887 100.932C392.309 100.932 392.662 100.88 392.946 100.776C393.23 100.671 393.445 100.527 393.592 100.342C393.739 100.158 393.815 99.947 393.819 99.7102C393.815 99.4877 393.741 99.2936 393.599 99.1278C393.462 98.9574 393.234 98.8059 392.917 98.6733C392.6 98.536 392.172 98.4081 391.632 98.2898L390.183 97.9773C388.895 97.6979 387.879 97.2315 387.136 96.5781C386.397 95.92 386.03 95.0227 386.035 93.8864C386.03 92.9631 386.277 92.1558 386.774 91.4645C387.276 90.7685 387.969 90.2263 388.855 89.8381C389.745 89.4498 390.765 89.2557 391.916 89.2557C393.09 89.2557 394.106 89.4522 394.963 89.8452C395.82 90.2382 396.48 90.7921 396.944 91.5071C397.413 92.2173 397.65 93.0483 397.654 94H393.876ZM398.759 89.4545H403.162L406.003 95.3636H406.117L408.958 89.4545H413.361L408.02 99.4261V104H404.1V99.4261L398.759 89.4545ZM421.864 95.25V98.2045H415.046V95.25H421.864ZM423.743 92.6364V89.4545H436.385V92.6364H432.01V104H428.118V92.6364H423.743ZM451.278 96.7273C451.278 98.3466 450.964 99.7126 450.334 100.825C449.704 101.933 448.854 102.774 447.784 103.347C446.714 103.915 445.521 104.199 444.205 104.199C442.879 104.199 441.681 103.912 440.611 103.339C439.545 102.762 438.698 101.919 438.068 100.811C437.443 99.6984 437.131 98.3371 437.131 96.7273C437.131 95.108 437.443 93.7443 438.068 92.6364C438.698 91.5237 439.545 90.6832 440.611 90.1151C441.681 89.5421 442.879 89.2557 444.205 89.2557C445.521 89.2557 446.714 89.5421 447.784 90.1151C448.854 90.6832 449.704 91.5237 450.334 92.6364C450.964 93.7443 451.278 95.108 451.278 96.7273ZM447.216 96.7273C447.216 95.8561 447.1 95.1222 446.868 94.5256C446.641 93.9242 446.302 93.4697 445.852 93.1619C445.407 92.8494 444.858 92.6932 444.205 92.6932C443.551 92.6932 443 92.8494 442.55 93.1619C442.105 93.4697 441.766 93.9242 441.534 94.5256C441.307 95.1222 441.193 95.8561 441.193 96.7273C441.193 97.5985 441.307 98.3348 441.534 98.9361C441.766 99.5327 442.105 99.9872 442.55 100.3C443 100.607 443.551 100.761 444.205 100.761C444.858 100.761 445.407 100.607 445.852 100.3C446.302 99.9872 446.641 99.5327 446.868 98.9361C447.1 98.3348 447.216 97.5985 447.216 96.7273ZM460.321 95.25V98.2045H453.503V95.25H460.321ZM471.206 89.4545H475.154V98.7727C475.154 99.8807 474.889 100.839 474.359 101.649C473.833 102.454 473.1 103.077 472.157 103.517C471.215 103.953 470.121 104.17 468.876 104.17C467.621 104.17 466.523 103.953 465.581 103.517C464.638 103.077 463.904 102.454 463.379 101.649C462.858 100.839 462.598 99.8807 462.598 98.7727V89.4545H466.547V98.4318C466.547 98.8816 466.646 99.2841 466.845 99.6392C467.044 99.9896 467.318 100.264 467.669 100.463C468.024 100.662 468.426 100.761 468.876 100.761C469.331 100.761 469.733 100.662 470.083 100.463C470.434 100.264 470.708 99.9896 470.907 99.6392C471.106 99.2841 471.206 98.8816 471.206 98.4318V89.4545ZM484.872 94C484.834 93.5265 484.657 93.1572 484.339 92.892C484.027 92.6269 483.551 92.4943 482.912 92.4943C482.505 92.4943 482.171 92.544 481.911 92.6435C481.655 92.7382 481.465 92.8684 481.342 93.0341C481.219 93.1998 481.155 93.3892 481.151 93.6023C481.141 93.7775 481.172 93.9361 481.243 94.0781C481.319 94.2154 481.437 94.3409 481.598 94.4545C481.759 94.5634 481.965 94.6629 482.216 94.7528C482.467 94.8428 482.765 94.9233 483.111 94.9943L484.304 95.25C485.109 95.4205 485.798 95.6454 486.371 95.9247C486.944 96.2041 487.412 96.5331 487.777 96.9119C488.142 97.286 488.409 97.7074 488.58 98.1761C488.755 98.6449 488.845 99.1562 488.849 99.7102C488.845 100.667 488.606 101.476 488.132 102.139C487.659 102.802 486.982 103.306 486.101 103.652C485.225 103.998 484.171 104.17 482.94 104.17C481.676 104.17 480.573 103.983 479.631 103.609C478.693 103.235 477.964 102.66 477.443 101.884C476.927 101.102 476.667 100.103 476.662 98.8864H480.412C480.436 99.3314 480.547 99.7055 480.746 100.009C480.945 100.312 481.224 100.541 481.584 100.697C481.948 100.854 482.382 100.932 482.884 100.932C483.305 100.932 483.658 100.88 483.942 100.776C484.226 100.671 484.441 100.527 484.588 100.342C484.735 100.158 484.811 99.947 484.815 99.7102C484.811 99.4877 484.737 99.2936 484.595 99.1278C484.458 98.9574 484.231 98.8059 483.913 98.6733C483.596 98.536 483.168 98.4081 482.628 98.2898L481.179 97.9773C479.891 97.6979 478.875 97.2315 478.132 96.5781C477.393 95.92 477.027 95.0227 477.031 93.8864C477.027 92.9631 477.273 92.1558 477.77 91.4645C478.272 90.7685 478.965 90.2263 479.851 89.8381C480.741 89.4498 481.761 89.2557 482.912 89.2557C484.086 89.2557 485.102 89.4522 485.959 89.8452C486.816 90.2382 487.476 90.7921 487.94 91.5071C488.409 92.2173 488.646 93.0483 488.651 94H484.872ZM490.352 104V89.4545H500.835V92.6364H494.3V95.1364H500.295V98.3182H494.3V100.818H500.806V104H490.352ZM510.726 89.4545V104H506.777V89.4545H510.726ZM525.183 89.4545V104H521.887L516.632 96.358H516.547V104H512.598V89.4545H515.95L521.12 97.0682H521.234V89.4545H525.183ZM526.653 92.6364V89.4545H539.295V92.6364H534.92V104H531.028V92.6364H526.653ZM540.781 104V89.4545H551.264V92.6364H544.73V95.1364H550.724V98.3182H544.73V100.818H551.236V104H540.781ZM553.223 104V89.4545H559.501C560.581 89.4545 561.525 89.651 562.335 90.044C563.145 90.437 563.774 91.0028 564.224 91.7415C564.674 92.4801 564.899 93.3655 564.899 94.3977C564.899 95.4394 564.667 96.3177 564.203 97.0327C563.743 97.7476 563.097 98.2874 562.264 98.652C561.435 99.0166 560.467 99.1989 559.359 99.1989H555.609V96.1307H558.564C559.028 96.1307 559.423 96.0739 559.75 95.9602C560.081 95.8419 560.334 95.6548 560.51 95.3991C560.69 95.1435 560.779 94.8097 560.779 94.3977C560.779 93.9811 560.69 93.6425 560.51 93.3821C560.334 93.117 560.081 92.9228 559.75 92.7997C559.423 92.6719 559.028 92.608 558.564 92.608H557.172V104H553.223ZM561.745 97.3239L565.382 104H561.092L557.541 97.3239H561.745ZM566.582 104V89.4545H576.809V92.6364H570.531V95.1364H576.184V98.3182H570.531V104H566.582ZM580.224 104H575.962L580.763 89.4545H586.161L590.962 104H586.701L583.519 93.4602H583.406L580.224 104ZM579.428 98.2614H587.44V101.216H579.428V98.2614ZM605.259 94.9091H601.254C601.225 94.5777 601.149 94.277 601.026 94.0071C600.908 93.7372 600.742 93.5052 600.529 93.3111C600.321 93.1122 600.067 92.9607 599.769 92.8565C599.471 92.7476 599.132 92.6932 598.754 92.6932C598.091 92.6932 597.53 92.8542 597.07 93.1761C596.616 93.4981 596.27 93.9598 596.033 94.5611C595.801 95.1624 595.685 95.8845 595.685 96.7273C595.685 97.6174 595.804 98.3632 596.04 98.9645C596.282 99.5611 596.63 100.011 597.085 100.314C597.539 100.612 598.086 100.761 598.725 100.761C599.09 100.761 599.416 100.716 599.705 100.626C599.994 100.532 600.245 100.397 600.458 100.222C600.671 100.046 600.844 99.8357 600.977 99.5895C601.114 99.3385 601.206 99.0568 601.254 98.7443L605.259 98.7727C605.212 99.3883 605.039 100.016 604.741 100.655C604.442 101.289 604.019 101.876 603.469 102.416C602.925 102.951 602.25 103.382 601.445 103.709C600.64 104.036 599.705 104.199 598.64 104.199C597.305 104.199 596.107 103.912 595.046 103.339C593.99 102.767 593.155 101.924 592.539 100.811C591.928 99.6984 591.623 98.3371 591.623 96.7273C591.623 95.108 591.935 93.7443 592.56 92.6364C593.185 91.5237 594.028 90.6832 595.089 90.1151C596.149 89.5421 597.333 89.2557 598.64 89.2557C599.558 89.2557 600.404 89.3812 601.175 89.6321C601.947 89.883 602.624 90.25 603.207 90.733C603.789 91.2112 604.258 91.8007 604.613 92.5014C604.968 93.2022 605.183 94.0047 605.259 94.9091ZM607.051 104V89.4545H617.534V92.6364H611V95.1364H616.994V98.3182H611V100.818H617.505V104H607.051ZM623.079 92.6364V89.4545H635.721V92.6364H631.346V104H627.454V92.6364H623.079ZM650.614 96.7273C650.614 98.3466 650.299 99.7126 649.67 100.825C649.04 101.933 648.19 102.774 647.12 103.347C646.05 103.915 644.857 104.199 643.54 104.199C642.215 104.199 641.017 103.912 639.947 103.339C638.881 102.762 638.034 101.919 637.404 100.811C636.779 99.6984 636.467 98.3371 636.467 96.7273C636.467 95.108 636.779 93.7443 637.404 92.6364C638.034 91.5237 638.881 90.6832 639.947 90.1151C641.017 89.5421 642.215 89.2557 643.54 89.2557C644.857 89.2557 646.05 89.5421 647.12 90.1151C648.19 90.6832 649.04 91.5237 649.67 92.6364C650.299 93.7443 650.614 95.108 650.614 96.7273ZM646.552 96.7273C646.552 95.8561 646.436 95.1222 646.204 94.5256C645.977 93.9242 645.638 93.4697 645.188 93.1619C644.743 92.8494 644.194 92.6932 643.54 92.6932C642.887 92.6932 642.335 92.8494 641.886 93.1619C641.441 93.4697 641.102 93.9242 640.87 94.5256C640.643 95.1222 640.529 95.8561 640.529 96.7273C640.529 97.5985 640.643 98.3348 640.87 98.9361C641.102 99.5327 641.441 99.9872 641.886 100.3C642.335 100.607 642.887 100.761 643.54 100.761C644.194 100.761 644.743 100.607 645.188 100.3C645.638 99.9872 645.977 99.5327 646.204 98.9361C646.436 98.3348 646.552 97.5985 646.552 96.7273ZM656.426 104V89.4545H660.375V100.818H666.255V104H656.426ZM671.63 104H667.369L672.17 89.4545H677.567L682.369 104H678.107L674.925 93.4602H674.812L671.63 104ZM670.835 98.2614H678.846V101.216H670.835V98.2614ZM692.377 89.4545H696.326V98.7727C696.326 99.8807 696.061 100.839 695.531 101.649C695.005 102.454 694.271 103.077 693.329 103.517C692.387 103.953 691.293 104.17 690.048 104.17C688.793 104.17 687.695 103.953 686.752 103.517C685.81 103.077 685.076 102.454 684.551 101.649C684.03 100.839 683.77 99.8807 683.77 98.7727V89.4545H687.718V98.4318C687.718 98.8816 687.818 99.2841 688.017 99.6392C688.216 99.9896 688.49 100.264 688.841 100.463C689.196 100.662 689.598 100.761 690.048 100.761C690.502 100.761 690.905 100.662 691.255 100.463C691.606 100.264 691.88 99.9896 692.079 99.6392C692.278 99.2841 692.377 98.8816 692.377 98.4318V89.4545ZM710.788 89.4545V104H707.493L702.237 96.358H702.152V104H698.203V89.4545H701.555L706.726 97.0682H706.839V89.4545H710.788ZM726.236 94.9091H722.23C722.202 94.5777 722.126 94.277 722.003 94.0071C721.884 93.7372 721.719 93.5052 721.506 93.3111C721.297 93.1122 721.044 92.9607 720.746 92.8565C720.447 92.7476 720.109 92.6932 719.73 92.6932C719.067 92.6932 718.506 92.8542 718.047 93.1761C717.592 93.4981 717.247 93.9598 717.01 94.5611C716.778 95.1624 716.662 95.8845 716.662 96.7273C716.662 97.6174 716.78 98.3632 717.017 98.9645C717.259 99.5611 717.607 100.011 718.061 100.314C718.516 100.612 719.063 100.761 719.702 100.761C720.066 100.761 720.393 100.716 720.682 100.626C720.971 100.532 721.222 100.397 721.435 100.222C721.648 100.046 721.821 99.8357 721.953 99.5895C722.09 99.3385 722.183 99.0568 722.23 98.7443L726.236 98.7727C726.188 99.3883 726.016 100.016 725.717 100.655C725.419 101.289 724.995 101.876 724.446 102.416C723.902 102.951 723.227 103.382 722.422 103.709C721.617 104.036 720.682 104.199 719.616 104.199C718.281 104.199 717.083 103.912 716.023 103.339C714.967 102.767 714.131 101.924 713.516 100.811C712.905 99.6984 712.599 98.3371 712.599 96.7273C712.599 95.108 712.912 93.7443 713.537 92.6364C714.162 91.5237 715.005 90.6832 716.065 90.1151C717.126 89.5421 718.31 89.2557 719.616 89.2557C720.535 89.2557 721.38 89.3812 722.152 89.6321C722.924 89.883 723.601 90.25 724.183 90.733C724.766 91.2112 725.234 91.8007 725.589 92.5014C725.945 93.2022 726.16 94.0047 726.236 94.9091ZM728.027 104V89.4545H731.976V95.1364H737.203V89.4545H741.152V104H737.203V98.3182H731.976V104H728.027ZM752.608 104H747.012V89.4545H752.551C754.048 89.4545 755.34 89.7457 756.429 90.3281C757.523 90.9058 758.366 91.7391 758.958 92.8281C759.554 93.9124 759.853 95.2121 759.853 96.7273C759.853 98.2424 759.557 99.5445 758.965 100.634C758.373 101.718 757.535 102.551 756.451 103.134C755.366 103.711 754.086 104 752.608 104ZM750.961 100.648H752.466C753.186 100.648 753.799 100.532 754.306 100.3C754.817 100.068 755.205 99.6676 755.471 99.0994C755.74 98.5312 755.875 97.7405 755.875 96.7273C755.875 95.714 755.738 94.9233 755.463 94.3551C755.194 93.7869 754.796 93.3868 754.27 93.1548C753.749 92.9228 753.11 92.8068 752.353 92.8068H750.961V100.648ZM774.265 89.4545V104H770.969L765.714 96.358H765.629V104H761.68V89.4545H765.032L770.202 97.0682H770.316V89.4545H774.265ZM776.133 104V89.4545H786.36V92.6364H780.082V95.1364H785.735V98.3182H780.082V104H776.133ZM787.415 92.6364V89.4545H800.057V92.6364H795.682V104H791.79V92.6364H787.415ZM819.107 94.9091H815.101C815.073 94.5777 814.997 94.277 814.874 94.0071C814.756 93.7372 814.59 93.5052 814.377 93.3111C814.168 93.1122 813.915 92.9607 813.617 92.8565C813.319 92.7476 812.98 92.6932 812.601 92.6932C811.938 92.6932 811.377 92.8542 810.918 93.1761C810.463 93.4981 810.118 93.9598 809.881 94.5611C809.649 95.1624 809.533 95.8845 809.533 96.7273C809.533 97.6174 809.651 98.3632 809.888 98.9645C810.13 99.5611 810.478 100.011 810.932 100.314C811.387 100.612 811.934 100.761 812.573 100.761C812.937 100.761 813.264 100.716 813.553 100.626C813.842 100.532 814.093 100.397 814.306 100.222C814.519 100.046 814.692 99.8357 814.824 99.5895C814.962 99.3385 815.054 99.0568 815.101 98.7443L819.107 98.7727C819.06 99.3883 818.887 100.016 818.588 100.655C818.29 101.289 817.866 101.876 817.317 102.416C816.773 102.951 816.098 103.382 815.293 103.709C814.488 104.036 813.553 104.199 812.488 104.199C811.152 104.199 809.954 103.912 808.894 103.339C807.838 102.767 807.002 101.924 806.387 100.811C805.776 99.6984 805.471 98.3371 805.471 96.7273C805.471 95.108 805.783 93.7443 806.408 92.6364C807.033 91.5237 807.876 90.6832 808.936 90.1151C809.997 89.5421 811.181 89.2557 812.488 89.2557C813.406 89.2557 814.251 89.3812 815.023 89.6321C815.795 89.883 816.472 90.25 817.054 90.733C817.637 91.2112 818.105 91.8007 818.461 92.5014C818.816 93.2022 819.031 94.0047 819.107 94.9091ZM834.989 96.7273C834.989 98.3466 834.674 99.7126 834.045 100.825C833.415 101.933 832.565 102.774 831.495 103.347C830.425 103.915 829.232 104.199 827.915 104.199C826.59 104.199 825.392 103.912 824.322 103.339C823.256 102.762 822.409 101.919 821.779 100.811C821.154 99.6984 820.842 98.3371 820.842 96.7273C820.842 95.108 821.154 93.7443 821.779 92.6364C822.409 91.5237 823.256 90.6832 824.322 90.1151C825.392 89.5421 826.59 89.2557 827.915 89.2557C829.232 89.2557 830.425 89.5421 831.495 90.1151C832.565 90.6832 833.415 91.5237 834.045 92.6364C834.674 93.7443 834.989 95.108 834.989 96.7273ZM830.927 96.7273C830.927 95.8561 830.811 95.1222 830.579 94.5256C830.352 93.9242 830.013 93.4697 829.563 93.1619C829.118 92.8494 828.569 92.6932 827.915 92.6932C827.262 92.6932 826.71 92.8494 826.261 93.1619C825.816 93.4697 825.477 93.9242 825.245 94.5256C825.018 95.1222 824.904 95.8561 824.904 96.7273C824.904 97.5985 825.018 98.3348 825.245 98.9361C825.477 99.5327 825.816 99.9872 826.261 100.3C826.71 100.607 827.262 100.761 827.915 100.761C828.569 100.761 829.118 100.607 829.563 100.3C830.013 99.9872 830.352 99.5327 830.579 98.9361C830.811 98.3348 830.927 97.5985 830.927 96.7273ZM836.816 104V89.4545H840.765V100.818H846.646V104H836.816ZM848.242 104V89.4545H852.191V100.818H858.072V104H848.242ZM859.668 104V89.4545H870.151V92.6364H863.617V95.1364H869.611V98.3182H863.617V100.818H870.123V104H859.668ZM885.689 94.9091H881.683C881.655 94.5777 881.579 94.277 881.456 94.0071C881.338 93.7372 881.172 93.5052 880.959 93.3111C880.75 93.1122 880.497 92.9607 880.199 92.8565C879.901 92.7476 879.562 92.6932 879.183 92.6932C878.52 92.6932 877.959 92.8542 877.5 93.1761C877.045 93.4981 876.7 93.9598 876.463 94.5611C876.231 95.1624 876.115 95.8845 876.115 96.7273C876.115 97.6174 876.233 98.3632 876.47 98.9645C876.712 99.5611 877.06 100.011 877.514 100.314C877.969 100.612 878.516 100.761 879.155 100.761C879.519 100.761 879.846 100.716 880.135 100.626C880.424 100.532 880.675 100.397 880.888 100.222C881.101 100.046 881.274 99.8357 881.406 99.5895C881.544 99.3385 881.636 99.0568 881.683 98.7443L885.689 98.7727C885.642 99.3883 885.469 100.016 885.17 100.655C884.872 101.289 884.448 101.876 883.899 102.416C883.355 102.951 882.68 103.382 881.875 103.709C881.07 104.036 880.135 104.199 879.07 104.199C877.734 104.199 876.536 103.912 875.476 103.339C874.42 102.767 873.584 101.924 872.969 100.811C872.358 99.6984 872.053 98.3371 872.053 96.7273C872.053 95.108 872.365 93.7443 872.99 92.6364C873.615 91.5237 874.458 90.6832 875.518 90.1151C876.579 89.5421 877.763 89.2557 879.07 89.2557C879.988 89.2557 880.833 89.3812 881.605 89.6321C882.377 89.883 883.054 90.25 883.636 90.733C884.219 91.2112 884.688 91.8007 885.043 92.5014C885.398 93.2022 885.613 94.0047 885.689 94.9091ZM887.083 92.6364V89.4545H899.725V92.6364H895.35V104H891.458V92.6364H887.083ZM905.16 89.4545V104H901.211V89.4545H905.16ZM921.122 96.7273C921.122 98.3466 920.807 99.7126 920.178 100.825C919.548 101.933 918.698 102.774 917.628 103.347C916.558 103.915 915.365 104.199 914.048 104.199C912.723 104.199 911.525 103.912 910.455 103.339C909.389 102.762 908.542 101.919 907.912 100.811C907.287 99.6984 906.974 98.3371 906.974 96.7273C906.974 95.108 907.287 93.7443 907.912 92.6364C908.542 91.5237 909.389 90.6832 910.455 90.1151C911.525 89.5421 912.723 89.2557 914.048 89.2557C915.365 89.2557 916.558 89.5421 917.628 90.1151C918.698 90.6832 919.548 91.5237 920.178 92.6364C920.807 93.7443 921.122 95.108 921.122 96.7273ZM917.06 96.7273C917.06 95.8561 916.944 95.1222 916.712 94.5256C916.484 93.9242 916.146 93.4697 915.696 93.1619C915.251 92.8494 914.702 92.6932 914.048 92.6932C913.395 92.6932 912.843 92.8494 912.393 93.1619C911.948 93.4697 911.61 93.9242 911.378 94.5256C911.151 95.1222 911.037 95.8561 911.037 96.7273C911.037 97.5985 911.151 98.3348 911.378 98.9361C911.61 99.5327 911.948 99.9872 912.393 100.3C912.843 100.607 913.395 100.761 914.048 100.761C914.702 100.761 915.251 100.607 915.696 100.3C916.146 99.9872 916.484 99.5327 916.712 98.9361C916.944 98.3348 917.06 97.5985 917.06 96.7273ZM935.534 89.4545V104H932.239L926.983 96.358H926.898V104H922.949V89.4545H926.301L931.472 97.0682H931.586V89.4545H935.534ZM945.243 94C945.205 93.5265 945.028 93.1572 944.711 92.892C944.398 92.6269 943.922 92.4943 943.283 92.4943C942.876 92.4943 942.542 92.544 942.282 92.6435C942.026 92.7382 941.837 92.8684 941.713 93.0341C941.59 93.1998 941.526 93.3892 941.522 93.6023C941.512 93.7775 941.543 93.9361 941.614 94.0781C941.69 94.2154 941.808 94.3409 941.969 94.4545C942.13 94.5634 942.336 94.6629 942.587 94.7528C942.838 94.8428 943.136 94.9233 943.482 94.9943L944.675 95.25C945.48 95.4205 946.169 95.6454 946.742 95.9247C947.315 96.2041 947.783 96.5331 948.148 96.9119C948.513 97.286 948.78 97.7074 948.951 98.1761C949.126 98.6449 949.216 99.1562 949.221 99.7102C949.216 100.667 948.977 101.476 948.503 102.139C948.03 102.802 947.353 103.306 946.472 103.652C945.596 103.998 944.542 104.17 943.311 104.17C942.047 104.17 940.944 103.983 940.002 103.609C939.064 103.235 938.335 102.66 937.814 101.884C937.298 101.102 937.038 100.103 937.033 98.8864H940.783C940.807 99.3314 940.918 99.7055 941.117 100.009C941.316 100.312 941.595 100.541 941.955 100.697C942.319 100.854 942.753 100.932 943.255 100.932C943.676 100.932 944.029 100.88 944.313 100.776C944.597 100.671 944.812 100.527 944.959 100.342C945.106 100.158 945.182 99.947 945.186 99.7102C945.182 99.4877 945.108 99.2936 944.966 99.1278C944.829 98.9574 944.602 98.8059 944.284 98.6733C943.967 98.536 943.539 98.4081 942.999 98.2898L941.55 97.9773C940.262 97.6979 939.247 97.2315 938.503 96.5781C937.765 95.92 937.398 95.0227 937.402 93.8864C937.398 92.9631 937.644 92.1558 938.141 91.4645C938.643 90.7685 939.337 90.2263 940.222 89.8381C941.112 89.4498 942.132 89.2557 943.283 89.2557C944.457 89.2557 945.473 89.4522 946.33 89.8452C947.187 90.2382 947.847 90.7921 948.311 91.5071C948.78 92.2173 949.017 93.0483 949.022 94H945.243ZM954.018 89.4545V91.1591C954.018 91.6231 953.923 92.0871 953.734 92.5511C953.549 93.0104 953.313 93.4389 953.024 93.8366C952.74 94.2296 952.446 94.5587 952.143 94.8239L950.524 94C950.723 93.6591 950.9 93.2637 951.056 92.8139C951.213 92.3641 951.291 91.8125 951.291 91.1591V89.4545H954.018ZM957.541 89.4545V91.1591C957.541 91.6231 957.446 92.0871 957.257 92.5511C957.072 93.0104 956.835 93.4389 956.547 93.8366C956.262 94.2296 955.969 94.5587 955.666 94.8239L954.047 94C954.245 93.6591 954.423 93.2637 954.579 92.8139C954.735 92.3641 954.814 91.8125 954.814 91.1591V89.4545H957.541Z" fill="white"/>
<rect x="526.571" y="44.2" width="12.7012" height="9.59999" fill="#B692F6"/>
<rect x="564.675" y="53.8" width="12.7012" height="9.59999" transform="rotate(180 564.675 53.8)" fill="#B692F6"/>
<path d="M539.272 44.2L551.973 34.6V44.2L539.272 53.8V44.2Z" fill="#E9D7FE"/>
<path d="M551.973 53.7999L539.272 63.3999L539.272 53.7999L551.973 44.1999L551.973 53.7999Z" fill="#D6BBFB"/>
<path d="M526.571 44.2L551.973 25V34.6L539.272 44.2H526.571Z" fill="#B692F6"/>
<path d="M564.675 53.8L539.272 73L539.272 63.4L551.973 53.8L564.675 53.8Z" fill="#B692F6"/>
<path d="M569.475 56V41.4545H578.253V43.017H571.236V47.9318H577.799V49.4943H571.236V54.4375H578.367V56H569.475ZM590.121 45.0909L586.087 56H584.383L580.349 45.0909H582.167L585.178 53.7841H585.292L588.303 45.0909H590.121ZM596.517 56.2273C595.466 56.2273 594.559 55.9953 593.797 55.5312C593.039 55.0625 592.454 54.4091 592.042 53.571C591.635 52.7282 591.432 51.7481 591.432 50.6307C591.432 49.5133 591.635 48.5284 592.042 47.6761C592.454 46.8191 593.027 46.1515 593.761 45.6733C594.5 45.1903 595.362 44.9489 596.346 44.9489C596.915 44.9489 597.476 45.0436 598.03 45.233C598.584 45.4223 599.088 45.7301 599.542 46.1562C599.997 46.5777 600.359 47.1364 600.629 47.8324C600.899 48.5284 601.034 49.3854 601.034 50.4034V51.1136H592.625V49.6648H599.329C599.329 49.0492 599.206 48.5 598.96 48.017C598.719 47.5341 598.373 47.1529 597.923 46.8736C597.478 46.5942 596.952 46.4545 596.346 46.4545C595.679 46.4545 595.101 46.6203 594.613 46.9517C594.131 47.2784 593.759 47.7045 593.498 48.2301C593.238 48.7557 593.108 49.3191 593.108 49.9205V50.8864C593.108 51.7102 593.25 52.4086 593.534 52.9815C593.823 53.5497 594.223 53.983 594.734 54.2812C595.246 54.5748 595.84 54.7216 596.517 54.7216C596.957 54.7216 597.355 54.66 597.71 54.5369C598.07 54.4091 598.38 54.2197 598.64 53.9688C598.901 53.7131 599.102 53.3958 599.244 53.017L600.863 53.4716C600.693 54.0208 600.407 54.5038 600.004 54.9205C599.602 55.3324 599.104 55.6544 598.513 55.8864C597.921 56.1136 597.256 56.2273 596.517 56.2273ZM605.26 41.4545V56H603.584V41.4545H605.26ZM612.762 56.2273C611.777 56.2273 610.913 55.9929 610.169 55.5241C609.431 55.0554 608.853 54.3996 608.436 53.5568C608.024 52.714 607.818 51.7292 607.818 50.6023C607.818 49.4659 608.024 48.474 608.436 47.6264C608.853 46.7789 609.431 46.1207 610.169 45.652C610.913 45.1832 611.777 44.9489 612.762 44.9489C613.746 44.9489 614.608 45.1832 615.347 45.652C616.09 46.1207 616.668 46.7789 617.08 47.6264C617.496 48.474 617.705 49.4659 617.705 50.6023C617.705 51.7292 617.496 52.714 617.08 53.5568C616.668 54.3996 616.09 55.0554 615.347 55.5241C614.608 55.9929 613.746 56.2273 612.762 56.2273ZM612.762 54.7216C613.51 54.7216 614.125 54.5298 614.608 54.1463C615.091 53.7628 615.449 53.2585 615.681 52.6335C615.913 52.0085 616.029 51.3314 616.029 50.6023C616.029 49.8731 615.913 49.1937 615.681 48.5639C615.449 47.9342 615.091 47.4252 614.608 47.0369C614.125 46.6487 613.51 46.4545 612.762 46.4545C612.013 46.4545 611.398 46.6487 610.915 47.0369C610.432 47.4252 610.075 47.9342 609.843 48.5639C609.611 49.1937 609.495 49.8731 609.495 50.6023C609.495 51.3314 609.611 52.0085 609.843 52.6335C610.075 53.2585 610.432 53.7628 610.915 54.1463C611.398 54.5298 612.013 54.7216 612.762 54.7216ZM621.939 49.4375V56H620.263V45.0909H621.883V46.7955H622.025C622.28 46.2415 622.669 45.7964 623.189 45.4602C623.71 45.1193 624.383 44.9489 625.207 44.9489C625.945 44.9489 626.591 45.1004 627.145 45.4034C627.699 45.7017 628.13 46.1562 628.438 46.767C628.746 47.3731 628.9 48.1402 628.9 49.0682V56H627.224V49.1818C627.224 48.3248 627.001 47.6572 626.556 47.179C626.111 46.696 625.5 46.4545 624.724 46.4545C624.189 46.4545 623.71 46.5705 623.289 46.8026C622.872 47.0346 622.543 47.3731 622.302 47.8182C622.06 48.2633 621.939 48.803 621.939 49.4375Z" fill="white"/>
<defs>
<linearGradient id="paint0_linear_3117_60436" x1="156.781" y1="167.699" x2="360.822" y2="-383.162" gradientUnits="userSpaceOnUse">
<stop stop-color="#312E8F"/>
<stop offset="1" stop-color="#A33B92"/>
</linearGradient>
<linearGradient id="paint1_linear_3117_60436" x1="819.625" y1="46" x2="112.035" y2="234.765" gradientUnits="userSpaceOnUse">
<stop stop-color="#8760FA"/>
<stop offset="1" stop-color="#7E34B9"/>
</linearGradient>
</defs>
</svg>
